<svg width="22" height="22" viewBox="0 0 22 22" fill="none" xmlns="http://www.w3.org/2000/svg">
<path d="M16.5 3.66675H5.49999C4.48747 3.66675 3.66666 4.48756 3.66666 5.50008V16.5001C3.66666 17.5126 4.48747 18.3334 5.49999 18.3334H16.5C17.5125 18.3334 18.3333 17.5126 18.3333 16.5001V5.50008C18.3333 4.48756 17.5125 3.66675 16.5 3.66675Z" stroke="white" stroke-width="2" stroke-linecap="round" stroke-linejoin="round"/>
<path d="M7.33334 10.0833V14.6666" stroke="white" stroke-width="2" stroke-linecap="round" stroke-linejoin="round"/>
<path d="M7.33334 7.33325V7.34325" stroke="white" stroke-width="2" stroke-linecap="round" stroke-linejoin="round"/>
<path d="M11 14.6666V10.0833" stroke="white" stroke-width="2" stroke-linecap="round" stroke-linejoin="round"/>
<path d="M14.6667 14.6666V11.9166C14.6667 11.4304 14.4735 10.964 14.1297 10.6202C13.7859 10.2764 13.3196 10.0833 12.8333 10.0833C12.3471 10.0833 11.8808 10.2764 11.537 10.6202C11.1932 10.964 11 11.4304 11 11.9166" stroke="white" stroke-width="2" stroke-linecap="round" stroke-linejoin="round"/>
</svg>
