<svg width="22" height="22" viewBox="0 0 22 22" fill="none" xmlns="http://www.w3.org/2000/svg">
<g clip-path="url(#clip0_36_107)">
<path d="M10.9999 9.43991C7.58775 9.43991 2.7499 14.6133 2.7499 17.8789C2.7499 19.3497 3.9019 20.2284 5.83248 20.2284C7.93107 20.2284 9.31682 19.1714 10.9999 19.1714C12.6976 19.1714 14.0872 20.2284 16.1673 20.2284C18.0979 20.2284 19.2499 19.3497 19.2499 17.8789C19.2499 14.6133 14.4121 9.43991 10.9999 9.43991ZM4.67146 8.90849C4.22459 7.44826 2.84787 6.50258 1.59662 6.79589C0.345371 7.0892 -0.306465 8.51067 0.14041 9.9709C0.587285 11.4311 1.964 12.3768 3.21525 12.0835C4.4665 11.7902 5.11834 10.3687 4.67146 8.90849ZM8.31178 8.03277C9.64123 7.68973 10.3064 5.92818 9.79764 4.09836C9.28889 2.26853 7.79873 1.06368 6.46928 1.40672C5.13982 1.74976 4.47467 3.51131 4.98342 5.34114C5.49217 7.17096 6.98275 8.37623 8.31178 8.03277ZM20.4028 6.79632C19.1515 6.503 17.7752 7.44868 17.3279 8.90891C16.881 10.3691 17.5329 11.7906 18.7841 12.0839C20.0354 12.3772 21.4117 11.4316 21.859 9.97132C22.3058 8.51109 21.654 7.08963 20.4028 6.79632ZM13.688 8.03277C15.0175 8.37581 16.5076 7.17096 17.0164 5.34114C17.5251 3.51131 16.86 1.75018 15.5305 1.40672C14.2011 1.06326 12.7109 2.26853 12.2022 4.09836C11.6934 5.92818 12.3586 7.68973 13.688 8.03277Z" fill="white"/>
</g>
<defs>
<clipPath id="clip0_36_107">
<rect width="22" height="21.5769" fill="white"/>
</clipPath>
</defs>
</svg>
