<svg width="22" height="22" viewBox="0 0 22 22" fill="none" xmlns="http://www.w3.org/2000/svg">
<path d="M11 12.8333C12.5188 12.8333 13.75 11.602 13.75 10.0833C13.75 8.56447 12.5188 7.33325 11 7.33325C9.48122 7.33325 8.25 8.56447 8.25 10.0833C8.25 11.602 9.48122 12.8333 11 12.8333Z" stroke="white" stroke-width="2" stroke-linecap="round" stroke-linejoin="round"/>
<path d="M16.1856 15.2689L12.2962 19.1583C11.9524 19.5017 11.4864 19.6946 11.0005 19.6946C10.5146 19.6946 10.0485 19.5017 9.70477 19.1583L5.81444 15.2689C4.78889 14.2433 4.0905 12.9366 3.80757 11.5141C3.52464 10.0916 3.66989 8.61711 4.22494 7.27715C4.78 5.93718 5.71993 4.79189 6.92588 3.98611C8.13183 3.18033 9.54964 2.75024 11 2.75024C12.4504 2.75024 13.8682 3.18033 15.0742 3.98611C16.2801 4.79189 17.2201 5.93718 17.7751 7.27715C18.3302 8.61711 18.4754 10.0916 18.1925 11.5141C17.9095 12.9366 17.2112 14.2433 16.1856 15.2689V15.2689Z" stroke="white" stroke-width="2" stroke-linecap="round" stroke-linejoin="round"/>
</svg>
