<svg width="129" height="126" viewBox="0 0 129 126" fill="none" xmlns="http://www.w3.org/2000/svg">
<path d="M65.1025 54.0543C45.3845 58.7618 24.7051 95.9183 29.2988 115.16C31.3677 123.825 39.2608 127.413 50.4172 124.75C62.5444 121.854 69.0655 113.715 78.7917 111.393C88.6022 109.051 98.1192 113.361 110.14 110.491C121.296 107.828 126.717 101.061 124.648 92.3956C120.055 73.1544 84.8204 49.3468 65.1025 54.0543ZM27.7844 59.6541C23.148 51.6668 13.862 47.9942 7.0439 51.4487C0.225829 54.9032 -1.54142 64.1778 3.09505 72.1651C7.73152 80.1524 17.0175 83.825 23.8356 80.3705C30.6537 76.916 32.4209 67.6414 27.7844 59.6541V59.6541ZM47.5891 49.472C54.7891 45.6166 56.1549 34.3198 50.641 24.2402C45.1271 14.1607 34.821 9.11749 27.6209 12.9729C20.4209 16.8282 19.0551 28.1251 24.569 38.2046C30.0829 48.2842 40.3921 53.3293 47.5891 49.472ZM115.721 25.5056C108.077 25.5037 101.454 32.9744 100.924 42.1953C100.395 51.4157 106.162 58.8917 113.805 58.8937C121.448 58.8956 128.071 51.4249 128.602 42.2039C129.13 32.9836 123.364 25.5076 115.721 25.5056V25.5056ZM78.6571 42.0548C86.8222 42.2418 93.7386 33.0869 94.1046 21.6036C94.4705 10.1202 88.1494 0.661193 79.9837 0.471657C71.8179 0.282122 64.9021 9.43954 64.5362 20.9229C64.1702 32.4062 70.4919 41.8677 78.6571 42.0548V42.0548Z" fill="#666666" fill-opacity="0.08"/>
</svg>
